<?xml version="1.0" encoding="UTF-8"?>
<svg xmlns="http://www.w3.org/2000/svg" viewBox="0 0 1400 900" width="100%" style="max-width:1400px;display:block;margin:auto;background:#05050D">
  <defs>
    <style>
      @font-face {
        font-family: 'BigShoulders';
        src: url('canvas-fonts/BigShoulders-Bold.ttf') format('truetype');
        font-weight: bold;
      }
      @font-face {
        font-family: 'Jura';
        src: url('canvas-fonts/Jura-Light.ttf') format('truetype');
        font-weight: 300;
      }
      @font-face {
        font-family: 'GeistMono';
        src: url('canvas-fonts/GeistMono-Regular.ttf') format('truetype');
      }
    </style>
    <!-- Subtle violet glow for FTT -->
    <filter id="glow" x="-10%" y="-10%" width="120%" height="120%">
      <feGaussianBlur stdDeviation="8" result="coloredBlur"/>
      <feMerge>
        <feMergeNode in="coloredBlur"/>
        <feMergeNode in="SourceGraphic"/>
      </feMerge>
    </filter>
  </defs>

  <!-- Background -->
  <rect width="1400" height="900" fill="#05050D"/>

  <!-- Dot matrix -->
  <circle cx="38" cy="38" r="1" fill="#0E0E22"/><circle cx="38" cy="76" r="1" fill="#0E0E22"/><circle cx="38" cy="114" r="1" fill="#0E0E22"/><circle cx="38" cy="152" r="1" fill="#0E0E22"/><circle cx="38" cy="190" r="1" fill="#0E0E22"/><circle cx="38" cy="228" r="1" fill="#0E0E22"/><circle cx="38" cy="266" r="1" fill="#0E0E22"/><circle cx="38" cy="304" r="1" fill="#0E0E22"/><circle cx="38" cy="342" r="1" fill="#0E0E22"/><circle cx="38" cy="380" r="1" fill="#0E0E22"/><circle cx="38" cy="418" r="1" fill="#0E0E22"/><circle cx="38" cy="456" r="1" fill="#0E0E22"/><circle cx="38" cy="494" r="1" fill="#0E0E22"/><circle cx="38" cy="532" r="1" fill="#0E0E22"/><circle cx="38" cy="570" r="1" fill="#0E0E22"/><circle cx="38" cy="608" r="1" fill="#0E0E22"/><circle cx="38" cy="646" r="1" fill="#0E0E22"/><circle cx="38" cy="684" r="1" fill="#0E0E22"/><circle cx="38" cy="722" r="1" fill="#0E0E22"/><circle cx="38" cy="760" r="1" fill="#0E0E22"/><circle cx="38" cy="798" r="1" fill="#0E0E22"/><circle cx="38" cy="836" r="1" fill="#0E0E22"/><circle cx="38" cy="874" r="1" fill="#0E0E22"/><circle cx="76" cy="38" r="1" fill="#0E0E22"/><circle cx="76" cy="76" r="1" fill="#0E0E22"/><circle cx="76" cy="114" r="1" fill="#0E0E22"/><circle cx="76" cy="152" r="1" fill="#0E0E22"/><circle cx="76" cy="190" r="1" fill="#0E0E22"/><circle cx="76" cy="228" r="1" fill="#0E0E22"/><circle cx="76" cy="266" r="1" fill="#0E0E22"/><circle cx="76" cy="304" r="1" fill="#0E0E22"/><circle cx="76" cy="342" r="1" fill="#0E0E22"/><circle cx="76" cy="380" r="1" fill="#0E0E22"/><circle cx="76" cy="418" r="1" fill="#0E0E22"/><circle cx="76" cy="456" r="1" fill="#0E0E22"/><circle cx="76" cy="494" r="1" fill="#0E0E22"/><circle cx="76" cy="532" r="1" fill="#0E0E22"/><circle cx="76" cy="570" r="1" fill="#0E0E22"/><circle cx="76" cy="608" r="1" fill="#0E0E22"/><circle cx="76" cy="646" r="1" fill="#0E0E22"/><circle cx="76" cy="684" r="1" fill="#0E0E22"/><circle cx="76" cy="722" r="1" fill="#0E0E22"/><circle cx="76" cy="760" r="1" fill="#0E0E22"/><circle cx="76" cy="798" r="1" fill="#0E0E22"/><circle cx="76" cy="836" r="1" fill="#0E0E22"/><circle cx="76" cy="874" r="1" fill="#0E0E22"/><circle cx="114" cy="38" r="1" fill="#0E0E22"/><circle cx="114" cy="76" r="1" fill="#0E0E22"/><circle cx="114" cy="114" r="1" fill="#0E0E22"/><circle cx="114" cy="152" r="1" fill="#0E0E22"/><circle cx="114" cy="190" r="1" fill="#0E0E22"/><circle cx="114" cy="228" r="1" fill="#0E0E22"/><circle cx="114" cy="266" r="1" fill="#0E0E22"/><circle cx="114" cy="304" r="1" fill="#0E0E22"/><circle cx="114" cy="342" r="1" fill="#0E0E22"/><circle cx="114" cy="380" r="1" fill="#0E0E22"/><circle cx="114" cy="418" r="1" fill="#0E0E22"/><circle cx="114" cy="456" r="1" fill="#0E0E22"/><circle cx="114" cy="494" r="1" fill="#0E0E22"/><circle cx="114" cy="532" r="1" fill="#0E0E22"/><circle cx="114" cy="570" r="1" fill="#0E0E22"/><circle cx="114" cy="608" r="1" fill="#0E0E22"/><circle cx="114" cy="646" r="1" fill="#0E0E22"/><circle cx="114" cy="684" r="1" fill="#0E0E22"/><circle cx="114" cy="722" r="1" fill="#0E0E22"/><circle cx="114" cy="760" r="1" fill="#0E0E22"/><circle cx="114" cy="798" r="1" fill="#0E0E22"/><circle cx="114" cy="836" r="1" fill="#0E0E22"/><circle cx="114" cy="874" r="1" fill="#0E0E22"/><circle cx="152" cy="38" r="1" fill="#0E0E22"/><circle cx="152" cy="76" r="1" fill="#0E0E22"/><circle cx="152" cy="114" r="1" fill="#0E0E22"/><circle cx="152" cy="152" r="1" fill="#0E0E22"/><circle cx="152" cy="190" r="1" fill="#0E0E22"/><circle cx="152" cy="228" r="1" fill="#0E0E22"/><circle cx="152" cy="266" r="1" fill="#0E0E22"/><circle cx="152" cy="304" r="1" fill="#0E0E22"/><circle cx="152" cy="342" r="1" fill="#0E0E22"/><circle cx="152" cy="380" r="1" fill="#0E0E22"/><circle cx="152" cy="418" r="1" fill="#0E0E22"/><circle cx="152" cy="456" r="1" fill="#0E0E22"/><circle cx="152" cy="494" r="1" fill="#0E0E22"/><circle cx="152" cy="532" r="1" fill="#0E0E22"/><circle cx="152" cy="570" r="1" fill="#0E0E22"/><circle cx="152" cy="608" r="1" fill="#0E0E22"/><circle cx="152" cy="646" r="1" fill="#0E0E22"/><circle cx="152" cy="684" r="1" fill="#0E0E22"/><circle cx="152" cy="722" r="1" fill="#0E0E22"/><circle cx="152" cy="760" r="1" fill="#0E0E22"/><circle cx="152" cy="798" r="1" fill="#0E0E22"/><circle cx="152" cy="836" r="1" fill="#0E0E22"/><circle cx="152" cy="874" r="1" fill="#0E0E22"/><circle cx="190" cy="38" r="1" fill="#0E0E22"/><circle cx="190" cy="76" r="1" fill="#0E0E22"/><circle cx="190" cy="114" r="1" fill="#0E0E22"/><circle cx="190" cy="152" r="1" fill="#0E0E22"/><circle cx="190" cy="190" r="1" fill="#0E0E22"/><circle cx="190" cy="228" r="1" fill="#0E0E22"/><circle cx="190" cy="266" r="1" fill="#0E0E22"/><circle cx="190" cy="304" r="1" fill="#0E0E22"/><circle cx="190" cy="342" r="1" fill="#0E0E22"/><circle cx="190" cy="380" r="1" fill="#0E0E22"/><circle cx="190" cy="418" r="1" fill="#0E0E22"/><circle cx="190" cy="456" r="1" fill="#0E0E22"/><circle cx="190" cy="494" r="1" fill="#0E0E22"/><circle cx="190" cy="532" r="1" fill="#0E0E22"/><circle cx="190" cy="570" r="1" fill="#0E0E22"/><circle cx="190" cy="608" r="1" fill="#0E0E22"/><circle cx="190" cy="646" r="1" fill="#0E0E22"/><circle cx="190" cy="684" r="1" fill="#0E0E22"/><circle cx="190" cy="722" r="1" fill="#0E0E22"/><circle cx="190" cy="760" r="1" fill="#0E0E22"/><circle cx="190" cy="798" r="1" fill="#0E0E22"/><circle cx="190" cy="836" r="1" fill="#0E0E22"/><circle cx="190" cy="874" r="1" fill="#0E0E22"/><circle cx="228" cy="38" r="1" fill="#0E0E22"/><circle cx="228" cy="76" r="1" fill="#0E0E22"/><circle cx="228" cy="114" r="1" fill="#0E0E22"/><circle cx="228" cy="152" r="1" fill="#0E0E22"/><circle cx="228" cy="190" r="1" fill="#0E0E22"/><circle cx="228" cy="228" r="1" fill="#0E0E22"/><circle cx="228" cy="266" r="1" fill="#0E0E22"/><circle cx="228" cy="304" r="1" fill="#0E0E22"/><circle cx="228" cy="342" r="1" fill="#0E0E22"/><circle cx="228" cy="380" r="1" fill="#0E0E22"/><circle cx="228" cy="418" r="1" fill="#0E0E22"/><circle cx="228" cy="456" r="1" fill="#0E0E22"/><circle cx="228" cy="494" r="1" fill="#0E0E22"/><circle cx="228" cy="532" r="1" fill="#0E0E22"/><circle cx="228" cy="570" r="1" fill="#0E0E22"/><circle cx="228" cy="608" r="1" fill="#0E0E22"/><circle cx="228" cy="646" r="1" fill="#0E0E22"/><circle cx="228" cy="684" r="1" fill="#0E0E22"/><circle cx="228" cy="722" r="1" fill="#0E0E22"/><circle cx="228" cy="760" r="1" fill="#0E0E22"/><circle cx="228" cy="798" r="1" fill="#0E0E22"/><circle cx="228" cy="836" r="1" fill="#0E0E22"/><circle cx="228" cy="874" r="1" fill="#0E0E22"/><circle cx="266" cy="38" r="1" fill="#0E0E22"/><circle cx="266" cy="76" r="1" fill="#0E0E22"/><circle cx="266" cy="114" r="1" fill="#0E0E22"/><circle cx="266" cy="152" r="1" fill="#0E0E22"/><circle cx="266" cy="190" r="1" fill="#0E0E22"/><circle cx="266" cy="228" r="1" fill="#0E0E22"/><circle cx="266" cy="266" r="1" fill="#0E0E22"/><circle cx="266" cy="304" r="1" fill="#0E0E22"/><circle cx="266" cy="342" r="1" fill="#0E0E22"/><circle cx="266" cy="380" r="1" fill="#0E0E22"/><circle cx="266" cy="418" r="1" fill="#0E0E22"/><circle cx="266" cy="456" r="1" fill="#0E0E22"/><circle cx="266" cy="494" r="1" fill="#0E0E22"/><circle cx="266" cy="532" r="1" fill="#0E0E22"/><circle cx="266" cy="570" r="1" fill="#0E0E22"/><circle cx="266" cy="608" r="1" fill="#0E0E22"/><circle cx="266" cy="646" r="1" fill="#0E0E22"/><circle cx="266" cy="684" r="1" fill="#0E0E22"/><circle cx="266" cy="722" r="1" fill="#0E0E22"/><circle cx="266" cy="760" r="1" fill="#0E0E22"/><circle cx="266" cy="798" r="1" fill="#0E0E22"/><circle cx="266" cy="836" r="1" fill="#0E0E22"/><circle cx="266" cy="874" r="1" fill="#0E0E22"/><circle cx="304" cy="38" r="1" fill="#0E0E22"/><circle cx="304" cy="76" r="1" fill="#0E0E22"/><circle cx="304" cy="114" r="1" fill="#0E0E22"/><circle cx="304" cy="152" r="1" fill="#0E0E22"/><circle cx="304" cy="190" r="1" fill="#0E0E22"/><circle cx="304" cy="228" r="1" fill="#0E0E22"/><circle cx="304" cy="266" r="1" fill="#0E0E22"/><circle cx="304" cy="304" r="1" fill="#0E0E22"/><circle cx="304" cy="342" r="1" fill="#0E0E22"/><circle cx="304" cy="380" r="1" fill="#0E0E22"/><circle cx="304" cy="418" r="1" fill="#0E0E22"/><circle cx="304" cy="456" r="1" fill="#0E0E22"/><circle cx="304" cy="494" r="1" fill="#0E0E22"/><circle cx="304" cy="532" r="1" fill="#0E0E22"/><circle cx="304" cy="570" r="1" fill="#0E0E22"/><circle cx="304" cy="608" r="1" fill="#0E0E22"/><circle cx="304" cy="646" r="1" fill="#0E0E22"/><circle cx="304" cy="684" r="1" fill="#0E0E22"/><circle cx="304" cy="722" r="1" fill="#0E0E22"/><circle cx="304" cy="760" r="1" fill="#0E0E22"/><circle cx="304" cy="798" r="1" fill="#0E0E22"/><circle cx="304" cy="836" r="1" fill="#0E0E22"/><circle cx="304" cy="874" r="1" fill="#0E0E22"/><circle cx="342" cy="38" r="1" fill="#0E0E22"/><circle cx="342" cy="76" r="1" fill="#0E0E22"/><circle cx="342" cy="114" r="1" fill="#0E0E22"/><circle cx="342" cy="152" r="1" fill="#0E0E22"/><circle cx="342" cy="190" r="1" fill="#0E0E22"/><circle cx="342" cy="228" r="1" fill="#0E0E22"/><circle cx="342" cy="266" r="1" fill="#0E0E22"/><circle cx="342" cy="304" r="1" fill="#0E0E22"/><circle cx="342" cy="342" r="1" fill="#0E0E22"/><circle cx="342" cy="380" r="1" fill="#0E0E22"/><circle cx="342" cy="418" r="1" fill="#0E0E22"/><circle cx="342" cy="456" r="1" fill="#0E0E22"/><circle cx="342" cy="494" r="1" fill="#0E0E22"/><circle cx="342" cy="532" r="1" fill="#0E0E22"/><circle cx="342" cy="570" r="1" fill="#0E0E22"/><circle cx="342" cy="608" r="1" fill="#0E0E22"/><circle cx="342" cy="646" r="1" fill="#0E0E22"/><circle cx="342" cy="684" r="1" fill="#0E0E22"/><circle cx="342" cy="722" r="1" fill="#0E0E22"/><circle cx="342" cy="760" r="1" fill="#0E0E22"/><circle cx="342" cy="798" r="1" fill="#0E0E22"/><circle cx="342" cy="836" r="1" fill="#0E0E22"/><circle cx="342" cy="874" r="1" fill="#0E0E22"/><circle cx="380" cy="38" r="1" fill="#0E0E22"/><circle cx="380" cy="76" r="1" fill="#0E0E22"/><circle cx="380" cy="114" r="1" fill="#0E0E22"/><circle cx="380" cy="152" r="1" fill="#0E0E22"/><circle cx="380" cy="190" r="1" fill="#0E0E22"/><circle cx="380" cy="228" r="1" fill="#0E0E22"/><circle cx="380" cy="266" r="1" fill="#0E0E22"/><circle cx="380" cy="304" r="1" fill="#0E0E22"/><circle cx="380" cy="342" r="1" fill="#0E0E22"/><circle cx="380" cy="380" r="1" fill="#0E0E22"/><circle cx="380" cy="418" r="1" fill="#0E0E22"/><circle cx="380" cy="456" r="1" fill="#0E0E22"/><circle cx="380" cy="494" r="1" fill="#0E0E22"/><circle cx="380" cy="532" r="1" fill="#0E0E22"/><circle cx="380" cy="570" r="1" fill="#0E0E22"/><circle cx="380" cy="608" r="1" fill="#0E0E22"/><circle cx="380" cy="646" r="1" fill="#0E0E22"/><circle cx="380" cy="684" r="1" fill="#0E0E22"/><circle cx="380" cy="722" r="1" fill="#0E0E22"/><circle cx="380" cy="760" r="1" fill="#0E0E22"/><circle cx="380" cy="798" r="1" fill="#0E0E22"/><circle cx="380" cy="836" r="1" fill="#0E0E22"/><circle cx="380" cy="874" r="1" fill="#0E0E22"/><circle cx="418" cy="38" r="1" fill="#0E0E22"/><circle cx="418" cy="76" r="1" fill="#0E0E22"/><circle cx="418" cy="114" r="1" fill="#0E0E22"/><circle cx="418" cy="152" r="1" fill="#0E0E22"/><circle cx="418" cy="190" r="1" fill="#0E0E22"/><circle cx="418" cy="228" r="1" fill="#0E0E22"/><circle cx="418" cy="266" r="1" fill="#0E0E22"/><circle cx="418" cy="304" r="1" fill="#0E0E22"/><circle cx="418" cy="342" r="1" fill="#0E0E22"/><circle cx="418" cy="380" r="1" fill="#0E0E22"/><circle cx="418" cy="418" r="1" fill="#0E0E22"/><circle cx="418" cy="456" r="1" fill="#0E0E22"/><circle cx="418" cy="494" r="1" fill="#0E0E22"/><circle cx="418" cy="532" r="1" fill="#0E0E22"/><circle cx="418" cy="570" r="1" fill="#0E0E22"/><circle cx="418" cy="608" r="1" fill="#0E0E22"/><circle cx="418" cy="646" r="1" fill="#0E0E22"/><circle cx="418" cy="684" r="1" fill="#0E0E22"/><circle cx="418" cy="722" r="1" fill="#0E0E22"/><circle cx="418" cy="760" r="1" fill="#0E0E22"/><circle cx="418" cy="798" r="1" fill="#0E0E22"/><circle cx="418" cy="836" r="1" fill="#0E0E22"/><circle cx="418" cy="874" r="1" fill="#0E0E22"/><circle cx="456" cy="38" r="1" fill="#0E0E22"/><circle cx="456" cy="76" r="1" fill="#0E0E22"/><circle cx="456" cy="114" r="1" fill="#0E0E22"/><circle cx="456" cy="152" r="1" fill="#0E0E22"/><circle cx="456" cy="190" r="1" fill="#0E0E22"/><circle cx="456" cy="228" r="1" fill="#0E0E22"/><circle cx="456" cy="266" r="1" fill="#0E0E22"/><circle cx="456" cy="304" r="1" fill="#0E0E22"/><circle cx="456" cy="342" r="1" fill="#0E0E22"/><circle cx="456" cy="380" r="1" fill="#0E0E22"/><circle cx="456" cy="418" r="1" fill="#0E0E22"/><circle cx="456" cy="456" r="1" fill="#0E0E22"/><circle cx="456" cy="494" r="1" fill="#0E0E22"/><circle cx="456" cy="532" r="1" fill="#0E0E22"/><circle cx="456" cy="570" r="1" fill="#0E0E22"/><circle cx="456" cy="608" r="1" fill="#0E0E22"/><circle cx="456" cy="646" r="1" fill="#0E0E22"/><circle cx="456" cy="684" r="1" fill="#0E0E22"/><circle cx="456" cy="722" r="1" fill="#0E0E22"/><circle cx="456" cy="760" r="1" fill="#0E0E22"/><circle cx="456" cy="798" r="1" fill="#0E0E22"/><circle cx="456" cy="836" r="1" fill="#0E0E22"/><circle cx="456" cy="874" r="1" fill="#0E0E22"/><circle cx="494" cy="38" r="1" fill="#0E0E22"/><circle cx="494" cy="76" r="1" fill="#0E0E22"/><circle cx="494" cy="114" r="1" fill="#0E0E22"/><circle cx="494" cy="152" r="1" fill="#0E0E22"/><circle cx="494" cy="190" r="1" fill="#0E0E22"/><circle cx="494" cy="228" r="1" fill="#0E0E22"/><circle cx="494" cy="266" r="1" fill="#0E0E22"/><circle cx="494" cy="304" r="1" fill="#0E0E22"/><circle cx="494" cy="342" r="1" fill="#0E0E22"/><circle cx="494" cy="380" r="1" fill="#0E0E22"/><circle cx="494" cy="418" r="1" fill="#0E0E22"/><circle cx="494" cy="456" r="1" fill="#0E0E22"/><circle cx="494" cy="494" r="1" fill="#0E0E22"/><circle cx="494" cy="532" r="1" fill="#0E0E22"/><circle cx="494" cy="570" r="1" fill="#0E0E22"/><circle cx="494" cy="608" r="1" fill="#0E0E22"/><circle cx="494" cy="646" r="1" fill="#0E0E22"/><circle cx="494" cy="684" r="1" fill="#0E0E22"/><circle cx="494" cy="722" r="1" fill="#0E0E22"/><circle cx="494" cy="760" r="1" fill="#0E0E22"/><circle cx="494" cy="798" r="1" fill="#0E0E22"/><circle cx="494" cy="836" r="1" fill="#0E0E22"/><circle cx="494" cy="874" r="1" fill="#0E0E22"/><circle cx="532" cy="38" r="1" fill="#0E0E22"/><circle cx="532" cy="76" r="1" fill="#0E0E22"/><circle cx="532" cy="114" r="1" fill="#0E0E22"/><circle cx="532" cy="152" r="1" fill="#0E0E22"/><circle cx="532" cy="190" r="1" fill="#0E0E22"/><circle cx="532" cy="228" r="1" fill="#0E0E22"/><circle cx="532" cy="266" r="1" fill="#0E0E22"/><circle cx="532" cy="304" r="1" fill="#0E0E22"/><circle cx="532" cy="342" r="1" fill="#0E0E22"/><circle cx="532" cy="380" r="1" fill="#0E0E22"/><circle cx="532" cy="418" r="1" fill="#0E0E22"/><circle cx="532" cy="456" r="1" fill="#0E0E22"/><circle cx="532" cy="494" r="1" fill="#0E0E22"/><circle cx="532" cy="532" r="1" fill="#0E0E22"/><circle cx="532" cy="570" r="1" fill="#0E0E22"/><circle cx="532" cy="608" r="1" fill="#0E0E22"/><circle cx="532" cy="646" r="1" fill="#0E0E22"/><circle cx="532" cy="684" r="1" fill="#0E0E22"/><circle cx="532" cy="722" r="1" fill="#0E0E22"/><circle cx="532" cy="760" r="1" fill="#0E0E22"/><circle cx="532" cy="798" r="1" fill="#0E0E22"/><circle cx="532" cy="836" r="1" fill="#0E0E22"/><circle cx="532" cy="874" r="1" fill="#0E0E22"/><circle cx="570" cy="38" r="1" fill="#0E0E22"/><circle cx="570" cy="76" r="1" fill="#0E0E22"/><circle cx="570" cy="114" r="1" fill="#0E0E22"/><circle cx="570" cy="152" r="1" fill="#0E0E22"/><circle cx="570" cy="190" r="1" fill="#0E0E22"/><circle cx="570" cy="228" r="1" fill="#0E0E22"/><circle cx="570" cy="266" r="1" fill="#0E0E22"/><circle cx="570" cy="304" r="1" fill="#0E0E22"/><circle cx="570" cy="342" r="1" fill="#0E0E22"/><circle cx="570" cy="380" r="1" fill="#0E0E22"/><circle cx="570" cy="418" r="1" fill="#0E0E22"/><circle cx="570" cy="456" r="1" fill="#0E0E22"/><circle cx="570" cy="494" r="1" fill="#0E0E22"/><circle cx="570" cy="532" r="1" fill="#0E0E22"/><circle cx="570" cy="570" r="1" fill="#0E0E22"/><circle cx="570" cy="608" r="1" fill="#0E0E22"/><circle cx="570" cy="646" r="1" fill="#0E0E22"/><circle cx="570" cy="684" r="1" fill="#0E0E22"/><circle cx="570" cy="722" r="1" fill="#0E0E22"/><circle cx="570" cy="760" r="1" fill="#0E0E22"/><circle cx="570" cy="798" r="1" fill="#0E0E22"/><circle cx="570" cy="836" r="1" fill="#0E0E22"/><circle cx="570" cy="874" r="1" fill="#0E0E22"/><circle cx="608" cy="38" r="1" fill="#0E0E22"/><circle cx="608" cy="76" r="1" fill="#0E0E22"/><circle cx="608" cy="114" r="1" fill="#0E0E22"/><circle cx="608" cy="152" r="1" fill="#0E0E22"/><circle cx="608" cy="190" r="1" fill="#0E0E22"/><circle cx="608" cy="228" r="1" fill="#0E0E22"/><circle cx="608" cy="266" r="1" fill="#0E0E22"/><circle cx="608" cy="304" r="1" fill="#0E0E22"/><circle cx="608" cy="342" r="1" fill="#0E0E22"/><circle cx="608" cy="380" r="1" fill="#0E0E22"/><circle cx="608" cy="418" r="1" fill="#0E0E22"/><circle cx="608" cy="456" r="1" fill="#0E0E22"/><circle cx="608" cy="494" r="1" fill="#0E0E22"/><circle cx="608" cy="532" r="1" fill="#0E0E22"/><circle cx="608" cy="570" r="1" fill="#0E0E22"/><circle cx="608" cy="608" r="1" fill="#0E0E22"/><circle cx="608" cy="646" r="1" fill="#0E0E22"/><circle cx="608" cy="684" r="1" fill="#0E0E22"/><circle cx="608" cy="722" r="1" fill="#0E0E22"/><circle cx="608" cy="760" r="1" fill="#0E0E22"/><circle cx="608" cy="798" r="1" fill="#0E0E22"/><circle cx="608" cy="836" r="1" fill="#0E0E22"/><circle cx="608" cy="874" r="1" fill="#0E0E22"/><circle cx="646" cy="38" r="1" fill="#0E0E22"/><circle cx="646" cy="76" r="1" fill="#0E0E22"/><circle cx="646" cy="114" r="1" fill="#0E0E22"/><circle cx="646" cy="152" r="1" fill="#0E0E22"/><circle cx="646" cy="190" r="1" fill="#0E0E22"/><circle cx="646" cy="228" r="1" fill="#0E0E22"/><circle cx="646" cy="266" r="1" fill="#0E0E22"/><circle cx="646" cy="304" r="1" fill="#0E0E22"/><circle cx="646" cy="342" r="1" fill="#0E0E22"/><circle cx="646" cy="380" r="1" fill="#0E0E22"/><circle cx="646" cy="418" r="1" fill="#0E0E22"/><circle cx="646" cy="456" r="1" fill="#0E0E22"/><circle cx="646" cy="494" r="1" fill="#0E0E22"/><circle cx="646" cy="532" r="1" fill="#0E0E22"/><circle cx="646" cy="570" r="1" fill="#0E0E22"/><circle cx="646" cy="608" r="1" fill="#0E0E22"/><circle cx="646" cy="646" r="1" fill="#0E0E22"/><circle cx="646" cy="684" r="1" fill="#0E0E22"/><circle cx="646" cy="722" r="1" fill="#0E0E22"/><circle cx="646" cy="760" r="1" fill="#0E0E22"/><circle cx="646" cy="798" r="1" fill="#0E0E22"/><circle cx="646" cy="836" r="1" fill="#0E0E22"/><circle cx="646" cy="874" r="1" fill="#0E0E22"/><circle cx="684" cy="38" r="1" fill="#0E0E22"/><circle cx="684" cy="76" r="1" fill="#0E0E22"/><circle cx="684" cy="114" r="1" fill="#0E0E22"/><circle cx="684" cy="152" r="1" fill="#0E0E22"/><circle cx="684" cy="190" r="1" fill="#0E0E22"/><circle cx="684" cy="228" r="1" fill="#0E0E22"/><circle cx="684" cy="266" r="1" fill="#0E0E22"/><circle cx="684" cy="304" r="1" fill="#0E0E22"/><circle cx="684" cy="342" r="1" fill="#0E0E22"/><circle cx="684" cy="380" r="1" fill="#0E0E22"/><circle cx="684" cy="418" r="1" fill="#0E0E22"/><circle cx="684" cy="456" r="1" fill="#0E0E22"/><circle cx="684" cy="494" r="1" fill="#0E0E22"/><circle cx="684" cy="532" r="1" fill="#0E0E22"/><circle cx="684" cy="570" r="1" fill="#0E0E22"/><circle cx="684" cy="608" r="1" fill="#0E0E22"/><circle cx="684" cy="646" r="1" fill="#0E0E22"/><circle cx="684" cy="684" r="1" fill="#0E0E22"/><circle cx="684" cy="722" r="1" fill="#0E0E22"/><circle cx="684" cy="760" r="1" fill="#0E0E22"/><circle cx="684" cy="798" r="1" fill="#0E0E22"/><circle cx="684" cy="836" r="1" fill="#0E0E22"/><circle cx="684" cy="874" r="1" fill="#0E0E22"/><circle cx="722" cy="38" r="1" fill="#0E0E22"/><circle cx="722" cy="76" r="1" fill="#0E0E22"/><circle cx="722" cy="114" r="1" fill="#0E0E22"/><circle cx="722" cy="152" r="1" fill="#0E0E22"/><circle cx="722" cy="190" r="1" fill="#0E0E22"/><circle cx="722" cy="228" r="1" fill="#0E0E22"/><circle cx="722" cy="266" r="1" fill="#0E0E22"/><circle cx="722" cy="304" r="1" fill="#0E0E22"/><circle cx="722" cy="342" r="1" fill="#0E0E22"/><circle cx="722" cy="380" r="1" fill="#0E0E22"/><circle cx="722" cy="418" r="1" fill="#0E0E22"/><circle cx="722" cy="456" r="1" fill="#0E0E22"/><circle cx="722" cy="494" r="1" fill="#0E0E22"/><circle cx="722" cy="532" r="1" fill="#0E0E22"/><circle cx="722" cy="570" r="1" fill="#0E0E22"/><circle cx="722" cy="608" r="1" fill="#0E0E22"/><circle cx="722" cy="646" r="1" fill="#0E0E22"/><circle cx="722" cy="684" r="1" fill="#0E0E22"/><circle cx="722" cy="722" r="1" fill="#0E0E22"/><circle cx="722" cy="760" r="1" fill="#0E0E22"/><circle cx="722" cy="798" r="1" fill="#0E0E22"/><circle cx="722" cy="836" r="1" fill="#0E0E22"/><circle cx="722" cy="874" r="1" fill="#0E0E22"/><circle cx="760" cy="38" r="1" fill="#0E0E22"/><circle cx="760" cy="76" r="1" fill="#0E0E22"/><circle cx="760" cy="114" r="1" fill="#0E0E22"/><circle cx="760" cy="152" r="1" fill="#0E0E22"/><circle cx="760" cy="190" r="1" fill="#0E0E22"/><circle cx="760" cy="228" r="1" fill="#0E0E22"/><circle cx="760" cy="266" r="1" fill="#0E0E22"/><circle cx="760" cy="304" r="1" fill="#0E0E22"/><circle cx="760" cy="342" r="1" fill="#0E0E22"/><circle cx="760" cy="380" r="1" fill="#0E0E22"/><circle cx="760" cy="418" r="1" fill="#0E0E22"/><circle cx="760" cy="456" r="1" fill="#0E0E22"/><circle cx="760" cy="494" r="1" fill="#0E0E22"/><circle cx="760" cy="532" r="1" fill="#0E0E22"/><circle cx="760" cy="570" r="1" fill="#0E0E22"/><circle cx="760" cy="608" r="1" fill="#0E0E22"/><circle cx="760" cy="646" r="1" fill="#0E0E22"/><circle cx="760" cy="684" r="1" fill="#0E0E22"/><circle cx="760" cy="722" r="1" fill="#0E0E22"/><circle cx="760" cy="760" r="1" fill="#0E0E22"/><circle cx="760" cy="798" r="1" fill="#0E0E22"/><circle cx="760" cy="836" r="1" fill="#0E0E22"/><circle cx="760" cy="874" r="1" fill="#0E0E22"/><circle cx="798" cy="38" r="1" fill="#0E0E22"/><circle cx="798" cy="76" r="1" fill="#0E0E22"/><circle cx="798" cy="114" r="1" fill="#0E0E22"/><circle cx="798" cy="152" r="1" fill="#0E0E22"/><circle cx="798" cy="190" r="1" fill="#0E0E22"/><circle cx="798" cy="228" r="1" fill="#0E0E22"/><circle cx="798" cy="266" r="1" fill="#0E0E22"/><circle cx="798" cy="304" r="1" fill="#0E0E22"/><circle cx="798" cy="342" r="1" fill="#0E0E22"/><circle cx="798" cy="380" r="1" fill="#0E0E22"/><circle cx="798" cy="418" r="1" fill="#0E0E22"/><circle cx="798" cy="456" r="1" fill="#0E0E22"/><circle cx="798" cy="494" r="1" fill="#0E0E22"/><circle cx="798" cy="532" r="1" fill="#0E0E22"/><circle cx="798" cy="570" r="1" fill="#0E0E22"/><circle cx="798" cy="608" r="1" fill="#0E0E22"/><circle cx="798" cy="646" r="1" fill="#0E0E22"/><circle cx="798" cy="684" r="1" fill="#0E0E22"/><circle cx="798" cy="722" r="1" fill="#0E0E22"/><circle cx="798" cy="760" r="1" fill="#0E0E22"/><circle cx="798" cy="798" r="1" fill="#0E0E22"/><circle cx="798" cy="836" r="1" fill="#0E0E22"/><circle cx="798" cy="874" r="1" fill="#0E0E22"/><circle cx="836" cy="38" r="1" fill="#0E0E22"/><circle cx="836" cy="76" r="1" fill="#0E0E22"/><circle cx="836" cy="114" r="1" fill="#0E0E22"/><circle cx="836" cy="152" r="1" fill="#0E0E22"/><circle cx="836" cy="190" r="1" fill="#0E0E22"/><circle cx="836" cy="228" r="1" fill="#0E0E22"/><circle cx="836" cy="266" r="1" fill="#0E0E22"/><circle cx="836" cy="304" r="1" fill="#0E0E22"/><circle cx="836" cy="342" r="1" fill="#0E0E22"/><circle cx="836" cy="380" r="1" fill="#0E0E22"/><circle cx="836" cy="418" r="1" fill="#0E0E22"/><circle cx="836" cy="456" r="1" fill="#0E0E22"/><circle cx="836" cy="494" r="1" fill="#0E0E22"/><circle cx="836" cy="532" r="1" fill="#0E0E22"/><circle cx="836" cy="570" r="1" fill="#0E0E22"/><circle cx="836" cy="608" r="1" fill="#0E0E22"/><circle cx="836" cy="646" r="1" fill="#0E0E22"/><circle cx="836" cy="684" r="1" fill="#0E0E22"/><circle cx="836" cy="722" r="1" fill="#0E0E22"/><circle cx="836" cy="760" r="1" fill="#0E0E22"/><circle cx="836" cy="798" r="1" fill="#0E0E22"/><circle cx="836" cy="836" r="1" fill="#0E0E22"/><circle cx="836" cy="874" r="1" fill="#0E0E22"/><circle cx="874" cy="38" r="1" fill="#0E0E22"/><circle cx="874" cy="76" r="1" fill="#0E0E22"/><circle cx="874" cy="114" r="1" fill="#0E0E22"/><circle cx="874" cy="152" r="1" fill="#0E0E22"/><circle cx="874" cy="190" r="1" fill="#0E0E22"/><circle cx="874" cy="228" r="1" fill="#0E0E22"/><circle cx="874" cy="266" r="1" fill="#0E0E22"/><circle cx="874" cy="304" r="1" fill="#0E0E22"/><circle cx="874" cy="342" r="1" fill="#0E0E22"/><circle cx="874" cy="380" r="1" fill="#0E0E22"/><circle cx="874" cy="418" r="1" fill="#0E0E22"/><circle cx="874" cy="456" r="1" fill="#0E0E22"/><circle cx="874" cy="494" r="1" fill="#0E0E22"/><circle cx="874" cy="532" r="1" fill="#0E0E22"/><circle cx="874" cy="570" r="1" fill="#0E0E22"/><circle cx="874" cy="608" r="1" fill="#0E0E22"/><circle cx="874" cy="646" r="1" fill="#0E0E22"/><circle cx="874" cy="684" r="1" fill="#0E0E22"/><circle cx="874" cy="722" r="1" fill="#0E0E22"/><circle cx="874" cy="760" r="1" fill="#0E0E22"/><circle cx="874" cy="798" r="1" fill="#0E0E22"/><circle cx="874" cy="836" r="1" fill="#0E0E22"/><circle cx="874" cy="874" r="1" fill="#0E0E22"/><circle cx="912" cy="38" r="1" fill="#0E0E22"/><circle cx="912" cy="76" r="1" fill="#0E0E22"/><circle cx="912" cy="114" r="1" fill="#0E0E22"/><circle cx="912" cy="152" r="1" fill="#0E0E22"/><circle cx="912" cy="190" r="1" fill="#0E0E22"/><circle cx="912" cy="228" r="1" fill="#0E0E22"/><circle cx="912" cy="266" r="1" fill="#0E0E22"/><circle cx="912" cy="304" r="1" fill="#0E0E22"/><circle cx="912" cy="342" r="1" fill="#0E0E22"/><circle cx="912" cy="380" r="1" fill="#0E0E22"/><circle cx="912" cy="418" r="1" fill="#0E0E22"/><circle cx="912" cy="456" r="1" fill="#0E0E22"/><circle cx="912" cy="494" r="1" fill="#0E0E22"/><circle cx="912" cy="532" r="1" fill="#0E0E22"/><circle cx="912" cy="570" r="1" fill="#0E0E22"/><circle cx="912" cy="608" r="1" fill="#0E0E22"/><circle cx="912" cy="646" r="1" fill="#0E0E22"/><circle cx="912" cy="684" r="1" fill="#0E0E22"/><circle cx="912" cy="722" r="1" fill="#0E0E22"/><circle cx="912" cy="760" r="1" fill="#0E0E22"/><circle cx="912" cy="798" r="1" fill="#0E0E22"/><circle cx="912" cy="836" r="1" fill="#0E0E22"/><circle cx="912" cy="874" r="1" fill="#0E0E22"/><circle cx="950" cy="38" r="1" fill="#0E0E22"/><circle cx="950" cy="76" r="1" fill="#0E0E22"/><circle cx="950" cy="114" r="1" fill="#0E0E22"/><circle cx="950" cy="152" r="1" fill="#0E0E22"/><circle cx="950" cy="190" r="1" fill="#0E0E22"/><circle cx="950" cy="228" r="1" fill="#0E0E22"/><circle cx="950" cy="266" r="1" fill="#0E0E22"/><circle cx="950" cy="304" r="1" fill="#0E0E22"/><circle cx="950" cy="342" r="1" fill="#0E0E22"/><circle cx="950" cy="380" r="1" fill="#0E0E22"/><circle cx="950" cy="418" r="1" fill="#0E0E22"/><circle cx="950" cy="456" r="1" fill="#0E0E22"/><circle cx="950" cy="494" r="1" fill="#0E0E22"/><circle cx="950" cy="532" r="1" fill="#0E0E22"/><circle cx="950" cy="570" r="1" fill="#0E0E22"/><circle cx="950" cy="608" r="1" fill="#0E0E22"/><circle cx="950" cy="646" r="1" fill="#0E0E22"/><circle cx="950" cy="684" r="1" fill="#0E0E22"/><circle cx="950" cy="722" r="1" fill="#0E0E22"/><circle cx="950" cy="760" r="1" fill="#0E0E22"/><circle cx="950" cy="798" r="1" fill="#0E0E22"/><circle cx="950" cy="836" r="1" fill="#0E0E22"/><circle cx="950" cy="874" r="1" fill="#0E0E22"/><circle cx="988" cy="38" r="1" fill="#0E0E22"/><circle cx="988" cy="76" r="1" fill="#0E0E22"/><circle cx="988" cy="114" r="1" fill="#0E0E22"/><circle cx="988" cy="152" r="1" fill="#0E0E22"/><circle cx="988" cy="190" r="1" fill="#0E0E22"/><circle cx="988" cy="228" r="1" fill="#0E0E22"/><circle cx="988" cy="266" r="1" fill="#0E0E22"/><circle cx="988" cy="304" r="1" fill="#0E0E22"/><circle cx="988" cy="342" r="1" fill="#0E0E22"/><circle cx="988" cy="380" r="1" fill="#0E0E22"/><circle cx="988" cy="418" r="1" fill="#0E0E22"/><circle cx="988" cy="456" r="1" fill="#0E0E22"/><circle cx="988" cy="494" r="1" fill="#0E0E22"/><circle cx="988" cy="532" r="1" fill="#0E0E22"/><circle cx="988" cy="570" r="1" fill="#0E0E22"/><circle cx="988" cy="608" r="1" fill="#0E0E22"/><circle cx="988" cy="646" r="1" fill="#0E0E22"/><circle cx="988" cy="684" r="1" fill="#0E0E22"/><circle cx="988" cy="722" r="1" fill="#0E0E22"/><circle cx="988" cy="760" r="1" fill="#0E0E22"/><circle cx="988" cy="798" r="1" fill="#0E0E22"/><circle cx="988" cy="836" r="1" fill="#0E0E22"/><circle cx="988" cy="874" r="1" fill="#0E0E22"/><circle cx="1026" cy="38" r="1" fill="#0E0E22"/><circle cx="1026" cy="76" r="1" fill="#0E0E22"/><circle cx="1026" cy="114" r="1" fill="#0E0E22"/><circle cx="1026" cy="152" r="1" fill="#0E0E22"/><circle cx="1026" cy="190" r="1" fill="#0E0E22"/><circle cx="1026" cy="228" r="1" fill="#0E0E22"/><circle cx="1026" cy="266" r="1" fill="#0E0E22"/><circle cx="1026" cy="304" r="1" fill="#0E0E22"/><circle cx="1026" cy="342" r="1" fill="#0E0E22"/><circle cx="1026" cy="380" r="1" fill="#0E0E22"/><circle cx="1026" cy="418" r="1" fill="#0E0E22"/><circle cx="1026" cy="456" r="1" fill="#0E0E22"/><circle cx="1026" cy="494" r="1" fill="#0E0E22"/><circle cx="1026" cy="532" r="1" fill="#0E0E22"/><circle cx="1026" cy="570" r="1" fill="#0E0E22"/><circle cx="1026" cy="608" r="1" fill="#0E0E22"/><circle cx="1026" cy="646" r="1" fill="#0E0E22"/><circle cx="1026" cy="684" r="1" fill="#0E0E22"/><circle cx="1026" cy="722" r="1" fill="#0E0E22"/><circle cx="1026" cy="760" r="1" fill="#0E0E22"/><circle cx="1026" cy="798" r="1" fill="#0E0E22"/><circle cx="1026" cy="836" r="1" fill="#0E0E22"/><circle cx="1026" cy="874" r="1" fill="#0E0E22"/><circle cx="1064" cy="38" r="1" fill="#0E0E22"/><circle cx="1064" cy="76" r="1" fill="#0E0E22"/><circle cx="1064" cy="114" r="1" fill="#0E0E22"/><circle cx="1064" cy="152" r="1" fill="#0E0E22"/><circle cx="1064" cy="190" r="1" fill="#0E0E22"/><circle cx="1064" cy="228" r="1" fill="#0E0E22"/><circle cx="1064" cy="266" r="1" fill="#0E0E22"/><circle cx="1064" cy="304" r="1" fill="#0E0E22"/><circle cx="1064" cy="342" r="1" fill="#0E0E22"/><circle cx="1064" cy="380" r="1" fill="#0E0E22"/><circle cx="1064" cy="418" r="1" fill="#0E0E22"/><circle cx="1064" cy="456" r="1" fill="#0E0E22"/><circle cx="1064" cy="494" r="1" fill="#0E0E22"/><circle cx="1064" cy="532" r="1" fill="#0E0E22"/><circle cx="1064" cy="570" r="1" fill="#0E0E22"/><circle cx="1064" cy="608" r="1" fill="#0E0E22"/><circle cx="1064" cy="646" r="1" fill="#0E0E22"/><circle cx="1064" cy="684" r="1" fill="#0E0E22"/><circle cx="1064" cy="722" r="1" fill="#0E0E22"/><circle cx="1064" cy="760" r="1" fill="#0E0E22"/><circle cx="1064" cy="798" r="1" fill="#0E0E22"/><circle cx="1064" cy="836" r="1" fill="#0E0E22"/><circle cx="1064" cy="874" r="1" fill="#0E0E22"/><circle cx="1102" cy="38" r="1" fill="#0E0E22"/><circle cx="1102" cy="76" r="1" fill="#0E0E22"/><circle cx="1102" cy="114" r="1" fill="#0E0E22"/><circle cx="1102" cy="152" r="1" fill="#0E0E22"/><circle cx="1102" cy="190" r="1" fill="#0E0E22"/><circle cx="1102" cy="228" r="1" fill="#0E0E22"/><circle cx="1102" cy="266" r="1" fill="#0E0E22"/><circle cx="1102" cy="304" r="1" fill="#0E0E22"/><circle cx="1102" cy="342" r="1" fill="#0E0E22"/><circle cx="1102" cy="380" r="1" fill="#0E0E22"/><circle cx="1102" cy="418" r="1" fill="#0E0E22"/><circle cx="1102" cy="456" r="1" fill="#0E0E22"/><circle cx="1102" cy="494" r="1" fill="#0E0E22"/><circle cx="1102" cy="532" r="1" fill="#0E0E22"/><circle cx="1102" cy="570" r="1" fill="#0E0E22"/><circle cx="1102" cy="608" r="1" fill="#0E0E22"/><circle cx="1102" cy="646" r="1" fill="#0E0E22"/><circle cx="1102" cy="684" r="1" fill="#0E0E22"/><circle cx="1102" cy="722" r="1" fill="#0E0E22"/><circle cx="1102" cy="760" r="1" fill="#0E0E22"/><circle cx="1102" cy="798" r="1" fill="#0E0E22"/><circle cx="1102" cy="836" r="1" fill="#0E0E22"/><circle cx="1102" cy="874" r="1" fill="#0E0E22"/><circle cx="1140" cy="38" r="1" fill="#0E0E22"/><circle cx="1140" cy="76" r="1" fill="#0E0E22"/><circle cx="1140" cy="114" r="1" fill="#0E0E22"/><circle cx="1140" cy="152" r="1" fill="#0E0E22"/><circle cx="1140" cy="190" r="1" fill="#0E0E22"/><circle cx="1140" cy="228" r="1" fill="#0E0E22"/><circle cx="1140" cy="266" r="1" fill="#0E0E22"/><circle cx="1140" cy="304" r="1" fill="#0E0E22"/><circle cx="1140" cy="342" r="1" fill="#0E0E22"/><circle cx="1140" cy="380" r="1" fill="#0E0E22"/><circle cx="1140" cy="418" r="1" fill="#0E0E22"/><circle cx="1140" cy="456" r="1" fill="#0E0E22"/><circle cx="1140" cy="494" r="1" fill="#0E0E22"/><circle cx="1140" cy="532" r="1" fill="#0E0E22"/><circle cx="1140" cy="570" r="1" fill="#0E0E22"/><circle cx="1140" cy="608" r="1" fill="#0E0E22"/><circle cx="1140" cy="646" r="1" fill="#0E0E22"/><circle cx="1140" cy="684" r="1" fill="#0E0E22"/><circle cx="1140" cy="722" r="1" fill="#0E0E22"/><circle cx="1140" cy="760" r="1" fill="#0E0E22"/><circle cx="1140" cy="798" r="1" fill="#0E0E22"/><circle cx="1140" cy="836" r="1" fill="#0E0E22"/><circle cx="1140" cy="874" r="1" fill="#0E0E22"/><circle cx="1178" cy="38" r="1" fill="#0E0E22"/><circle cx="1178" cy="76" r="1" fill="#0E0E22"/><circle cx="1178" cy="114" r="1" fill="#0E0E22"/><circle cx="1178" cy="152" r="1" fill="#0E0E22"/><circle cx="1178" cy="190" r="1" fill="#0E0E22"/><circle cx="1178" cy="228" r="1" fill="#0E0E22"/><circle cx="1178" cy="266" r="1" fill="#0E0E22"/><circle cx="1178" cy="304" r="1" fill="#0E0E22"/><circle cx="1178" cy="342" r="1" fill="#0E0E22"/><circle cx="1178" cy="380" r="1" fill="#0E0E22"/><circle cx="1178" cy="418" r="1" fill="#0E0E22"/><circle cx="1178" cy="456" r="1" fill="#0E0E22"/><circle cx="1178" cy="494" r="1" fill="#0E0E22"/><circle cx="1178" cy="532" r="1" fill="#0E0E22"/><circle cx="1178" cy="570" r="1" fill="#0E0E22"/><circle cx="1178" cy="608" r="1" fill="#0E0E22"/><circle cx="1178" cy="646" r="1" fill="#0E0E22"/><circle cx="1178" cy="684" r="1" fill="#0E0E22"/><circle cx="1178" cy="722" r="1" fill="#0E0E22"/><circle cx="1178" cy="760" r="1" fill="#0E0E22"/><circle cx="1178" cy="798" r="1" fill="#0E0E22"/><circle cx="1178" cy="836" r="1" fill="#0E0E22"/><circle cx="1178" cy="874" r="1" fill="#0E0E22"/><circle cx="1216" cy="38" r="1" fill="#0E0E22"/><circle cx="1216" cy="76" r="1" fill="#0E0E22"/><circle cx="1216" cy="114" r="1" fill="#0E0E22"/><circle cx="1216" cy="152" r="1" fill="#0E0E22"/><circle cx="1216" cy="190" r="1" fill="#0E0E22"/><circle cx="1216" cy="228" r="1" fill="#0E0E22"/><circle cx="1216" cy="266" r="1" fill="#0E0E22"/><circle cx="1216" cy="304" r="1" fill="#0E0E22"/><circle cx="1216" cy="342" r="1" fill="#0E0E22"/><circle cx="1216" cy="380" r="1" fill="#0E0E22"/><circle cx="1216" cy="418" r="1" fill="#0E0E22"/><circle cx="1216" cy="456" r="1" fill="#0E0E22"/><circle cx="1216" cy="494" r="1" fill="#0E0E22"/><circle cx="1216" cy="532" r="1" fill="#0E0E22"/><circle cx="1216" cy="570" r="1" fill="#0E0E22"/><circle cx="1216" cy="608" r="1" fill="#0E0E22"/><circle cx="1216" cy="646" r="1" fill="#0E0E22"/><circle cx="1216" cy="684" r="1" fill="#0E0E22"/><circle cx="1216" cy="722" r="1" fill="#0E0E22"/><circle cx="1216" cy="760" r="1" fill="#0E0E22"/><circle cx="1216" cy="798" r="1" fill="#0E0E22"/><circle cx="1216" cy="836" r="1" fill="#0E0E22"/><circle cx="1216" cy="874" r="1" fill="#0E0E22"/><circle cx="1254" cy="38" r="1" fill="#0E0E22"/><circle cx="1254" cy="76" r="1" fill="#0E0E22"/><circle cx="1254" cy="114" r="1" fill="#0E0E22"/><circle cx="1254" cy="152" r="1" fill="#0E0E22"/><circle cx="1254" cy="190" r="1" fill="#0E0E22"/><circle cx="1254" cy="228" r="1" fill="#0E0E22"/><circle cx="1254" cy="266" r="1" fill="#0E0E22"/><circle cx="1254" cy="304" r="1" fill="#0E0E22"/><circle cx="1254" cy="342" r="1" fill="#0E0E22"/><circle cx="1254" cy="380" r="1" fill="#0E0E22"/><circle cx="1254" cy="418" r="1" fill="#0E0E22"/><circle cx="1254" cy="456" r="1" fill="#0E0E22"/><circle cx="1254" cy="494" r="1" fill="#0E0E22"/><circle cx="1254" cy="532" r="1" fill="#0E0E22"/><circle cx="1254" cy="570" r="1" fill="#0E0E22"/><circle cx="1254" cy="608" r="1" fill="#0E0E22"/><circle cx="1254" cy="646" r="1" fill="#0E0E22"/><circle cx="1254" cy="684" r="1" fill="#0E0E22"/><circle cx="1254" cy="722" r="1" fill="#0E0E22"/><circle cx="1254" cy="760" r="1" fill="#0E0E22"/><circle cx="1254" cy="798" r="1" fill="#0E0E22"/><circle cx="1254" cy="836" r="1" fill="#0E0E22"/><circle cx="1254" cy="874" r="1" fill="#0E0E22"/><circle cx="1292" cy="38" r="1" fill="#0E0E22"/><circle cx="1292" cy="76" r="1" fill="#0E0E22"/><circle cx="1292" cy="114" r="1" fill="#0E0E22"/><circle cx="1292" cy="152" r="1" fill="#0E0E22"/><circle cx="1292" cy="190" r="1" fill="#0E0E22"/><circle cx="1292" cy="228" r="1" fill="#0E0E22"/><circle cx="1292" cy="266" r="1" fill="#0E0E22"/><circle cx="1292" cy="304" r="1" fill="#0E0E22"/><circle cx="1292" cy="342" r="1" fill="#0E0E22"/><circle cx="1292" cy="380" r="1" fill="#0E0E22"/><circle cx="1292" cy="418" r="1" fill="#0E0E22"/><circle cx="1292" cy="456" r="1" fill="#0E0E22"/><circle cx="1292" cy="494" r="1" fill="#0E0E22"/><circle cx="1292" cy="532" r="1" fill="#0E0E22"/><circle cx="1292" cy="570" r="1" fill="#0E0E22"/><circle cx="1292" cy="608" r="1" fill="#0E0E22"/><circle cx="1292" cy="646" r="1" fill="#0E0E22"/><circle cx="1292" cy="684" r="1" fill="#0E0E22"/><circle cx="1292" cy="722" r="1" fill="#0E0E22"/><circle cx="1292" cy="760" r="1" fill="#0E0E22"/><circle cx="1292" cy="798" r="1" fill="#0E0E22"/><circle cx="1292" cy="836" r="1" fill="#0E0E22"/><circle cx="1292" cy="874" r="1" fill="#0E0E22"/><circle cx="1330" cy="38" r="1" fill="#0E0E22"/><circle cx="1330" cy="76" r="1" fill="#0E0E22"/><circle cx="1330" cy="114" r="1" fill="#0E0E22"/><circle cx="1330" cy="152" r="1" fill="#0E0E22"/><circle cx="1330" cy="190" r="1" fill="#0E0E22"/><circle cx="1330" cy="228" r="1" fill="#0E0E22"/><circle cx="1330" cy="266" r="1" fill="#0E0E22"/><circle cx="1330" cy="304" r="1" fill="#0E0E22"/><circle cx="1330" cy="342" r="1" fill="#0E0E22"/><circle cx="1330" cy="380" r="1" fill="#0E0E22"/><circle cx="1330" cy="418" r="1" fill="#0E0E22"/><circle cx="1330" cy="456" r="1" fill="#0E0E22"/><circle cx="1330" cy="494" r="1" fill="#0E0E22"/><circle cx="1330" cy="532" r="1" fill="#0E0E22"/><circle cx="1330" cy="570" r="1" fill="#0E0E22"/><circle cx="1330" cy="608" r="1" fill="#0E0E22"/><circle cx="1330" cy="646" r="1" fill="#0E0E22"/><circle cx="1330" cy="684" r="1" fill="#0E0E22"/><circle cx="1330" cy="722" r="1" fill="#0E0E22"/><circle cx="1330" cy="760" r="1" fill="#0E0E22"/><circle cx="1330" cy="798" r="1" fill="#0E0E22"/><circle cx="1330" cy="836" r="1" fill="#0E0E22"/><circle cx="1330" cy="874" r="1" fill="#0E0E22"/><circle cx="1368" cy="38" r="1" fill="#0E0E22"/><circle cx="1368" cy="76" r="1" fill="#0E0E22"/><circle cx="1368" cy="114" r="1" fill="#0E0E22"/><circle cx="1368" cy="152" r="1" fill="#0E0E22"/><circle cx="1368" cy="190" r="1" fill="#0E0E22"/><circle cx="1368" cy="228" r="1" fill="#0E0E22"/><circle cx="1368" cy="266" r="1" fill="#0E0E22"/><circle cx="1368" cy="304" r="1" fill="#0E0E22"/><circle cx="1368" cy="342" r="1" fill="#0E0E22"/><circle cx="1368" cy="380" r="1" fill="#0E0E22"/><circle cx="1368" cy="418" r="1" fill="#0E0E22"/><circle cx="1368" cy="456" r="1" fill="#0E0E22"/><circle cx="1368" cy="494" r="1" fill="#0E0E22"/><circle cx="1368" cy="532" r="1" fill="#0E0E22"/><circle cx="1368" cy="570" r="1" fill="#0E0E22"/><circle cx="1368" cy="608" r="1" fill="#0E0E22"/><circle cx="1368" cy="646" r="1" fill="#0E0E22"/><circle cx="1368" cy="684" r="1" fill="#0E0E22"/><circle cx="1368" cy="722" r="1" fill="#0E0E22"/><circle cx="1368" cy="760" r="1" fill="#0E0E22"/><circle cx="1368" cy="798" r="1" fill="#0E0E22"/><circle cx="1368" cy="836" r="1" fill="#0E0E22"/><circle cx="1368" cy="874" r="1" fill="#0E0E22"/>

  <!-- Very subtle top rule line -->
  <line x1="55" y1="170" x2="1345" y2="170" stroke="#0F0F28" stroke-width="1"/>

  <!-- FTT shadow (depth effect) -->
  <text
    x="706"
    y="566"
    font-family="BigShoulders, sans-serif"
    font-weight="bold"
    font-size="320"
    fill="#2B1060"
    text-anchor="middle"
    dominant-baseline="auto"
  >FTT</text>

  <!-- FTT main wordmark -->
  <text
    x="700"
    y="560"
    font-family="BigShoulders, sans-serif"
    font-weight="bold"
    font-size="320"
    fill="#7C3AED"
    text-anchor="middle"
    dominant-baseline="auto"
    filter="url(#glow)"
  >FTT</text>

  <!-- Cyan separator line (aprox FTT text width ~660px centered) -->
  <line x1="360" y1="598" x2="1040" y2="598" stroke="#06B6D4" stroke-width="1.5"/>

  <!-- STUDIO label -->
  <text
    x="700"
    y="644"
    font-family="Jura, sans-serif"
    font-weight="300"
    font-size="26"
    fill="#F1F0FF"
    text-anchor="middle"
    letter-spacing="10"
  >STUDIO</text>

  <!-- Corner brackets -->
  
    <line x1="55" y1="55" x2="91" y2="55" stroke="#1C1C3A" stroke-width="1"/>
    <line x1="55" y1="55" x2="55" y2="91" stroke="#1C1C3A" stroke-width="1"/>
    <line x1="1345" y1="55" x2="1309" y2="55" stroke="#1C1C3A" stroke-width="1"/>
    <line x1="1345" y1="55" x2="1345" y2="91" stroke="#1C1C3A" stroke-width="1"/>
    <line x1="55" y1="845" x2="91" y2="845" stroke="#1C1C3A" stroke-width="1"/>
    <line x1="55" y1="845" x2="55" y2="809" stroke="#1C1C3A" stroke-width="1"/>
    <line x1="1345" y1="845" x2="1309" y2="845" stroke="#1C1C3A" stroke-width="1"/>
    <line x1="1345" y1="845" x2="1345" y2="809" stroke="#1C1C3A" stroke-width="1"/>

  <!-- Coordinate labels -->
  <text x="63" y="71" font-family="Jura, sans-serif" font-size="10" fill="#1C1C3A">0,0</text>
  <text x="1299" y="839" font-family="Jura, sans-serif" font-size="10" fill="#1C1C3A">1400,900</text>

  <!-- Code tag bottom-left -->
  <text x="59" y="837" font-family="GeistMono, monospace" font-size="11" fill="#1A1A3A">&lt;  /  &gt;</text>

  <!-- Signal dots top-right -->
  <circle cx="1329" cy="71" r="4" fill="#06B6D4"/><circle cx="1329" cy="85" r="3" fill="#06B6D4"/><circle cx="1329" cy="97" r="2" fill="#06B6D4"/>
</svg>